<svg width="43" height="26" viewBox="0 0 43 26" fill="none" xmlns="http://www.w3.org/2000/svg">
<rect x="26" y="26" width="1" height="26" transform="rotate(180 26 26)" fill="#252323"/>
<rect x="26" y="1" width="25" height="1" transform="rotate(180 26 1)" fill="#252323"/>
<rect x="41" y="13" width="15" height="1" transform="rotate(180 41 13)" fill="#252323"/>
<rect x="26" y="26" width="25" height="1" transform="rotate(180 26 26)" fill="#252323"/>
<rect x="1" y="26" width="1" height="26" transform="rotate(180 1 26)" fill="#252323"/>
<path d="M43 12.5L38.5 15.5311V9.46891L43 12.5Z" fill="#252323"/>
<path d="M11 13C11 11.8954 11.8954 11 13 11C14.1046 11 15 11.8954 15 13C15 14.1046 14.1046 15 13 15C11.8954 15 11 14.1046 11 13Z" fill="#252323"/>
<path d="M5 7C5 5.89543 5.89543 5 7 5C8.10457 5 9 5.89543 9 7C9 8.10457 8.10457 9 7 9C5.89543 9 5 8.10457 5 7Z" fill="#252323"/>
<path d="M17 19C17 17.8954 17.8954 17 19 17C20.1046 17 21 17.8954 21 19C21 20.1046 20.1046 21 19 21C17.8954 21 17 20.1046 17 19Z" fill="#252323"/>
</svg>
