<svg width="43" height="26" viewBox="0 0 43 26" fill="none" xmlns="http://www.w3.org/2000/svg">
<rect x="26" y="26" width="1" height="26" transform="rotate(180 26 26)" fill="#252323"/>
<rect x="25" y="1" width="25" height="1" transform="rotate(180 25 1)" fill="#252323"/>
<rect x="41" y="13" width="15" height="1" transform="rotate(180 41 13)" fill="#252323"/>
<rect x="26" y="26" width="25" height="1" transform="rotate(180 26 26)" fill="#252323"/>
<rect x="1" y="26" width="1" height="26" transform="rotate(180 1 26)" fill="#252323"/>
<path d="M43 12.5L38.5 15.5311V9.46891L43 12.5Z" fill="#252323"/>
<path d="M11 13C11 11.8954 11.8954 11 13 11C14.1046 11 15 11.8954 15 13C15 14.1046 14.1046 15 13 15C11.8954 15 11 14.1046 11 13Z" fill="#252323"/>
</svg>
