<svg width="43" height="26" viewBox="0 0 43 26" fill="none" xmlns="http://www.w3.org/2000/svg">
<rect x="17" width="1" height="26" fill="#252323"/>
<rect x="18" y="25" width="25" height="1" fill="#252323"/>
<rect x="2" y="13" width="15" height="1" fill="#252323"/>
<rect x="17" width="25" height="1" fill="#252323"/>
<rect x="42" width="1" height="26" fill="#252323"/>
<path d="M0 13.5L4.5 10.4689V16.5311L0 13.5Z" fill="#252323"/>
<path d="M38 19C38 20.1046 37.1046 21 36 21C34.8954 21 34 20.1046 34 19C34 17.8954 34.8954 17 36 17C37.1046 17 38 17.8954 38 19Z" fill="#252323"/>
<path d="M26 7C26 8.10457 25.1046 9 24 9C22.8954 9 22 8.10457 22 7C22 5.89543 22.8954 5 24 5C25.1046 5 26 5.89543 26 7Z" fill="#252323"/>
</svg>
