<svg width="20" height="20" viewBox="0 0 20 20" fill="none" xmlns="http://www.w3.org/2000/svg">
<path d="M4.65548 6.42633H0.640452C0.462258 6.42633 0.317871 6.5711 0.317871 6.74962V19.6766C0.317871 19.8552 0.462258 19.9999 0.640452 19.9999H4.65548C4.83368 19.9999 4.97806 19.8552 4.97806 19.6766V6.74962C4.97806 6.5711 4.83368 6.42633 4.65548 6.42633Z" fill="black"/>
<path d="M2.64942 0C1.18852 0 0 1.18984 0 2.65235C0 4.11551 1.18852 5.3058 2.64942 5.3058C4.10916 5.3058 5.29671 4.11544 5.29671 2.65235C5.29677 1.18984 4.10916 0 2.64942 0Z" fill="black"/>
<path d="M14.868 6.10504C13.2555 6.10504 12.0634 6.7998 11.3404 7.58921V6.74962C11.3404 6.5711 11.196 6.42633 11.0178 6.42633H7.17268C6.99448 6.42633 6.8501 6.5711 6.8501 6.74962V19.6766C6.8501 19.8552 6.99448 19.9999 7.17268 19.9999H11.1789C11.3571 19.9999 11.5015 19.8552 11.5015 19.6766V13.2808C11.5015 11.1255 12.0856 10.2859 13.5847 10.2859C15.2174 10.2859 15.3471 11.6319 15.3471 13.3917V19.6767C15.3471 19.8553 15.4915 20 15.6697 20H19.6775C19.8556 20 20 19.8553 20 19.6767V12.586C20 9.38122 19.3903 6.10504 14.868 6.10504Z" fill="black"/>
</svg>
